<svg xmlns="http://www.w3.org/2000/svg" viewBox="0 0 512 512">
  <defs>
    <linearGradient id="grad" x1="0%" y1="0%" x2="100%" y2="100%">
      <stop offset="0%" style="stop-color:#2563eb;stop-opacity:1" />
      <stop offset="100%" style="stop-color:#1e40af;stop-opacity:1" />
    </linearGradient>
  </defs>
  <rect width="512" height="512" rx="120" fill="url(#grad)"/>
  <path d="M360.5 329.8c-10.7-14.7-36.8-24.1-57.9-19.3-15.3 3.5-29.3 11.3-41.5 20.3-6.2 4.6-13.8 3.5-19.1-1.8-23.7-23.7-52.7-52.7-76.4-76.4-5.3-5.3-6.4-12.9-1.8-19.1 9-12.2 16.8-26.2 20.3-41.5 4.8-21.1-4.6-47.2-19.3-57.9l-45-32.8c-18.1-13.2-44.5-10.3-58.6 6.5l-21.9 26.1c-19 22.7-21.4 54.3-5.7 79.5 28.3 45.4 78.4 117.8 156.4 195.8 78 78 150.4 128.1 195.8 156.4 25.2 15.7 56.8 13.3 79.5-5.7l26.1-21.9c16.8-14.1 19.7-40.5 6.5-58.6l-32.8-45z" fill="white"/>
  <path d="M380 120h-40v-40c0-11-9-20-20-20s-20 9-20 20v40h-40c-11 0-20 9-20 20s9 20 20 20h40v40c0 11 9 20 20 20s20-9 20-20v-40h40c11 0 20-9 20-20s-9-20-20-20z" fill="#60a5fa"/>
</svg>